<svg width="24" height="24" viewBox="0 0 24 24" fill="none" xmlns="http://www.w3.org/2000/svg">
<g clip-path="url(#clip0_5828_18735)">
<path fill-rule="evenodd" clip-rule="evenodd" d="M20.97 6.20156L12.72 1.6875C12.2719 1.43992 11.7281 1.43992 11.28 1.6875L3.03 6.20344C2.55014 6.46599 2.25124 6.96894 2.25 7.51594V16.4822C2.25124 17.0292 2.55014 17.5321 3.03 17.7947L11.28 22.3106C11.7281 22.5582 12.2719 22.5582 12.72 22.3106L20.97 17.7947C21.4499 17.5321 21.7488 17.0292 21.75 16.4822V7.51687C21.7498 6.96887 21.4507 6.4646 20.97 6.20156V6.20156ZM12 3L19.5319 7.125L16.7409 8.65312L9.20813 4.52812L12 3ZM12 11.25L4.46812 7.125L7.64625 5.385L15.1781 9.51L12 11.25ZM3.75 8.4375L11.25 12.5419V20.5847L3.75 16.4831V8.4375ZM20.25 16.4794V16.4794L12.75 20.5847V12.5456L15.75 10.9041V14.25C15.75 14.6642 16.0858 15 16.5 15C16.9142 15 17.25 14.6642 17.25 14.25V10.0828L20.25 8.4375V16.4784V16.4794Z" fill="#6E33F5"/>
</g>
<defs>
<clipPath id="clip0_5828_18735">
<rect width="24" height="24" fill="white"/>
</clipPath>
</defs>
</svg>
