<svg width="24" height="24" viewBox="0 0 24 24" fill="none" xmlns="http://www.w3.org/2000/svg">
<path fill-rule="evenodd" clip-rule="evenodd" d="M12.0001 7.50005C9.51477 7.50005 7.50005 9.51477 7.50005 12.0001C7.50005 14.4853 9.51477 16.5001 12.0001 16.5001C14.4853 16.5001 16.5001 14.4853 16.5001 12.0001C16.4975 9.51584 14.4843 7.50263 12.0001 7.50005ZM12.0001 15.0001C10.3432 15.0001 9.00005 13.6569 9.00005 12.0001C9.00005 10.3432 10.3432 9.00005 12.0001 9.00005C13.6569 9.00005 15.0001 10.3432 15.0001 12.0001C15.0001 13.6569 13.6569 15.0001 12.0001 15.0001ZM20.2501 12.2026C20.2538 12.0676 20.2538 11.9326 20.2501 11.7976L21.6488 10.0501C21.7975 9.86398 21.849 9.61832 21.7876 9.38818C21.5582 8.52624 21.2152 7.69866 20.7676 6.92724C20.6487 6.72254 20.4402 6.58597 20.2051 6.5588L17.9813 6.3113C17.8888 6.2138 17.7951 6.12005 17.7001 6.03005L17.4376 3.80068C17.4102 3.56536 17.2732 3.35682 17.0682 3.23818C16.2965 2.79131 15.4689 2.44865 14.6072 2.21911C14.3769 2.15789 14.1313 2.20974 13.9454 2.3588L12.2026 3.75005C12.0676 3.75005 11.9326 3.75005 11.7976 3.75005L10.0501 2.35411C9.86398 2.20538 9.61832 2.15388 9.38818 2.21536C8.52638 2.44508 7.69885 2.78807 6.92724 3.23536C6.72254 3.35422 6.58597 3.56273 6.5588 3.79786L6.3113 6.02536C6.2138 6.11849 6.12005 6.21224 6.03005 6.30661L3.80068 6.56255C3.56536 6.58993 3.35682 6.72687 3.23818 6.93193C2.79131 7.70364 2.44865 8.53115 2.21911 9.39286C2.15789 9.62315 2.20974 9.86883 2.3588 10.0547L3.75005 11.7976C3.75005 11.9326 3.75005 12.0676 3.75005 12.2026L2.35411 13.9501C2.20538 14.1361 2.15388 14.3818 2.21536 14.6119C2.44467 15.4739 2.78768 16.3014 3.23536 17.0729C3.35422 17.2776 3.56273 17.4141 3.79786 17.4413L6.02161 17.6888C6.11474 17.7863 6.20849 17.88 6.30286 17.97L6.56255 20.1994C6.58993 20.4347 6.72687 20.6433 6.93193 20.7619C7.70364 21.2088 8.53115 21.5515 9.39286 21.781C9.62315 21.8422 9.86883 21.7904 10.0547 21.6413L11.7976 20.2501C11.9326 20.2538 12.0676 20.2538 12.2026 20.2501L13.9501 21.6488C14.1361 21.7975 14.3818 21.849 14.6119 21.7876C15.4739 21.5582 16.3014 21.2152 17.0729 20.7676C17.2776 20.6487 17.4141 20.4402 17.4413 20.2051L17.6888 17.9813C17.7863 17.8888 17.88 17.7951 17.97 17.7001L20.1994 17.4376C20.4347 17.4102 20.6433 17.2732 20.7619 17.0682C21.2088 16.2965 21.5515 15.4689 21.781 14.6072C21.8422 14.3769 21.7904 14.1313 21.6413 13.9454L20.2501 12.2026ZM18.7407 11.5932C18.7566 11.8642 18.7566 12.1359 18.7407 12.4069C18.7295 12.5925 18.7876 12.7756 18.9038 12.9207L20.2341 14.5829C20.0815 15.068 19.886 15.5386 19.6501 15.9891L17.5313 16.2291C17.3468 16.2496 17.1764 16.3378 17.0532 16.4766C16.8727 16.6796 16.6805 16.8718 16.4776 17.0522C16.3387 17.1755 16.2505 17.3458 16.2301 17.5304L15.9947 19.6472C15.5443 19.8833 15.0737 20.0788 14.5885 20.2313L12.9254 18.901C12.7923 18.7947 12.627 18.7368 12.4566 18.7369H12.4116C12.1406 18.7529 11.8689 18.7529 11.5979 18.7369C11.4123 18.7258 11.2292 18.7839 11.0841 18.9001L9.41724 20.2313C8.93211 20.0787 8.46151 19.8832 8.01099 19.6472L7.77099 17.5313C7.75051 17.3468 7.66232 17.1764 7.52349 17.0532C7.32053 16.8727 7.12832 16.6805 6.94786 16.4776C6.82461 16.3387 6.65425 16.2505 6.46974 16.2301L4.35286 15.9938C4.11679 15.5433 3.92133 15.0727 3.7688 14.5876L5.09911 12.9244C5.21527 12.7793 5.27341 12.5962 5.26224 12.4107C5.2463 12.1397 5.2463 11.8679 5.26224 11.5969C5.27341 11.4114 5.21527 11.2283 5.09911 11.0832L3.7688 9.41724C3.92145 8.93211 4.11691 8.46151 4.35286 8.01099L6.4688 7.77099C6.65331 7.75051 6.82368 7.66232 6.94693 7.52349C7.12739 7.32053 7.31959 7.12832 7.52255 6.94786C7.66193 6.82453 7.75048 6.65378 7.77099 6.4688L8.0063 4.35286C8.45677 4.11679 8.92738 3.92133 9.41255 3.7688L11.0757 5.09911C11.2208 5.21527 11.4039 5.27341 11.5894 5.26224C11.8604 5.2463 12.1322 5.2463 12.4032 5.26224C12.5887 5.27341 12.7718 5.21527 12.9169 5.09911L14.5829 3.7688C15.068 3.92145 15.5386 4.11691 15.9891 4.35286L16.2291 6.4688C16.2496 6.65331 16.3378 6.82368 16.4766 6.94693C16.6796 7.12739 16.8718 7.31959 17.0522 7.52255C17.1755 7.66138 17.3458 7.74957 17.5304 7.77005L19.6472 8.00536C19.8833 8.45583 20.0788 8.92645 20.2313 9.41161L18.901 11.0747C18.7837 11.2211 18.7255 11.406 18.7379 11.5932H18.7407Z" fill="#6E33F5"/>
</svg>
